<svg width="96" height="22" viewBox="0 0 96 22" fill="none" xmlns="http://www.w3.org/2000/svg">
<path d="M87.0295 21.3543C85.8868 21.3543 84.944 21.1642 84.2012 20.7838C83.4584 20.4035 82.9156 19.8996 82.5728 19.2721C82.23 18.6255 82.0586 17.9124 82.0586 17.1328C82.0586 16.277 82.2681 15.5259 82.6871 14.8794C83.1251 14.2138 83.8013 13.6908 84.7155 13.3105C85.6296 12.9302 86.801 12.74 88.2294 12.74H91.7147C91.7147 12.0935 91.629 11.5706 91.4576 11.1712C91.2862 10.7529 91.01 10.4486 90.6291 10.2585C90.2673 10.0493 89.7816 9.94469 89.1721 9.94469C88.5055 9.94469 87.9246 10.0873 87.4295 10.3725C86.9533 10.6578 86.6581 11.1047 86.5438 11.7132H82.43C82.5252 10.6673 82.868 9.76403 83.4584 9.00339C84.0489 8.22373 84.8297 7.61522 85.8011 7.17785C86.7914 6.74048 87.9246 6.5218 89.2007 6.5218C90.572 6.5218 91.7623 6.74048 92.7718 7.17785C93.8002 7.61522 94.5906 8.27127 95.1429 9.14601C95.7143 10.0017 96 11.0571 96 12.3122V21.012H92.4575L91.9718 18.8727H91.8861C91.6195 19.2911 91.3148 19.6524 90.9719 19.9566C90.6291 20.2609 90.2482 20.5176 89.8292 20.7268C89.4293 20.936 88.9912 21.0881 88.5151 21.1832C88.058 21.2973 87.5628 21.3543 87.0295 21.3543ZM88.4579 18.1026C88.915 18.1026 89.315 18.0265 89.6578 17.8744C90.0197 17.7223 90.3244 17.5226 90.572 17.2754C90.8196 17.0092 91.0196 16.7049 91.1719 16.3626C91.3243 16.0203 91.4386 15.6495 91.5147 15.2502H88.7436C88.2484 15.2502 87.8389 15.3167 87.5152 15.4498C87.2104 15.5639 86.9819 15.7351 86.8295 15.9633C86.6772 16.1724 86.601 16.4292 86.601 16.7334C86.601 17.0377 86.6772 17.2944 86.8295 17.5036C86.9819 17.6937 87.2009 17.8459 87.4866 17.96C87.7723 18.055 88.0961 18.1026 88.4579 18.1026Z" fill="#04383A"/>
<path d="M76.3777 21.0119V6.86393H80.663V21.0119H76.3777ZM78.5204 5.32363C77.7586 5.32363 77.1396 5.10494 76.6634 4.66757C76.1873 4.21119 75.9492 3.65021 75.9492 2.98465C75.9492 2.31909 76.1873 1.76762 76.6634 1.33025C77.1396 0.873868 77.7586 0.645676 78.5204 0.645676C79.3012 0.645676 79.9298 0.873868 80.4059 1.33025C80.9011 1.76762 81.1487 2.31909 81.1487 2.98465C81.1487 3.65021 80.9011 4.21119 80.4059 4.66757C79.9298 5.10494 79.3012 5.32363 78.5204 5.32363Z" fill="#04383A"/>
<path d="M72.4232 21.012C71.3757 21.012 70.452 20.8503 69.6521 20.5271C68.8712 20.1848 68.2522 19.6333 67.7951 18.8727C67.3571 18.112 67.138 17.0756 67.138 15.7635V10.3725H64.7383V6.86402H67.138L67.5951 2.89917H71.4233V6.86402H75.0801V10.3725H71.4233V15.8206C71.4233 16.4101 71.5566 16.8284 71.8233 17.0756C72.0899 17.3038 72.5279 17.4179 73.1374 17.4179H75.0515V21.012H72.4232Z" fill="#04383A"/>
<path d="M54.9521 21.3543C53.8094 21.3543 52.8666 21.1642 52.1238 20.7838C51.3811 20.4035 50.8383 19.8996 50.4954 19.2721C50.1526 18.6255 49.9812 17.9124 49.9812 17.1328C49.9812 16.277 50.1907 15.5259 50.6097 14.8794C51.0478 14.2138 51.7239 13.6908 52.6381 13.3105C53.5523 12.9302 54.7236 12.74 56.152 12.74H59.6373C59.6373 12.0935 59.5516 11.5706 59.3802 11.1712C59.2088 10.7529 58.9326 10.4486 58.5517 10.2585C58.1899 10.0493 57.7042 9.94469 57.0947 9.94469C56.4281 9.94469 55.8473 10.0873 55.3521 10.3725C54.8759 10.6578 54.5807 11.1047 54.4664 11.7132H50.3526C50.4478 10.6673 50.7906 9.76403 51.3811 9.00339C51.9715 8.22373 52.7523 7.61522 53.7237 7.17785C54.714 6.74048 55.8473 6.5218 57.1233 6.5218C58.4946 6.5218 59.685 6.74048 60.6944 7.17785C61.7228 7.61522 62.5132 8.27127 63.0655 9.14601C63.6369 10.0017 63.9226 11.0571 63.9226 12.3122V21.012H60.3801L59.8945 18.8727H59.8087C59.5421 19.2911 59.2374 19.6524 58.8946 19.9566C58.5517 20.2609 58.1708 20.5176 57.7518 20.7268C57.3519 20.936 56.9138 21.0881 56.4377 21.1832C55.9806 21.2973 55.4854 21.3543 54.9521 21.3543ZM56.3805 18.1026C56.8376 18.1026 57.2376 18.0265 57.5804 17.8744C57.9423 17.7223 58.247 17.5226 58.4946 17.2754C58.7422 17.0092 58.9422 16.7049 59.0945 16.3626C59.2469 16.0203 59.3612 15.6495 59.4374 15.2502H56.6662C56.171 15.2502 55.7615 15.3167 55.4378 15.4498C55.133 15.5639 54.9045 15.7351 54.7521 15.9633C54.5998 16.1724 54.5236 16.4292 54.5236 16.7334C54.5236 17.0377 54.5998 17.2944 54.7521 17.5036C54.9045 17.6937 55.1235 17.8459 55.4092 17.96C55.6949 18.055 56.0187 18.1026 56.3805 18.1026Z" fill="#04383A"/>
<path d="M40.1943 21.012V6.86409H43.8511L44.2511 9.85911H44.3368C44.7177 8.96536 45.1557 8.28078 45.6509 7.80538C46.1651 7.31096 46.746 6.97818 47.3936 6.80704C48.0602 6.61688 48.7744 6.5218 49.5362 6.5218V11.0571H48.3649C47.7555 11.0571 47.2031 11.1237 46.7079 11.2568C46.2318 11.3709 45.8223 11.5801 45.4795 11.8843C45.1557 12.1696 44.9081 12.5594 44.7367 13.0538C44.5653 13.5482 44.4796 14.1472 44.4796 14.8508V21.012H40.1943Z" fill="#04383A"/>
<path d="M28.1067 21.3542C26.3355 21.3542 24.7737 20.9359 23.4215 20.0992C22.0693 19.2434 21.0027 18.0549 20.2218 16.5336C19.46 15.0124 19.0791 13.2344 19.0791 11.1996C19.0791 9.14591 19.4791 7.32988 20.279 5.75154C21.0979 4.17321 22.2692 2.93717 23.7929 2.04341C25.3165 1.14966 27.1259 0.702782 29.2209 0.702782C31.6207 0.702782 33.6014 1.27326 35.1631 2.41423C36.7439 3.55519 37.7629 5.13352 38.22 7.14922H33.449C33.1633 6.35055 32.6586 5.73253 31.9349 5.29516C31.2302 4.85779 30.3255 4.63911 29.2209 4.63911C27.9639 4.63911 26.9069 4.91484 26.0498 5.4663C25.1927 5.99875 24.5452 6.7594 24.1071 7.74823C23.6691 8.71805 23.4501 9.86852 23.4501 11.1996C23.4501 12.5688 23.6691 13.7288 24.1071 14.6796C24.5452 15.6304 25.1832 16.353 26.0212 16.8474C26.8592 17.3228 27.8496 17.5605 28.9924 17.5605C30.6303 17.5605 31.8682 17.1327 32.7063 16.2769C33.5633 15.4212 34.0871 14.3468 34.2775 13.0537H29.6209V9.85901H38.5628V21.0119H34.6203L34.3061 18.0454H34.2204C33.8014 18.749 33.2967 19.3575 32.7063 19.871C32.1158 20.3654 31.4302 20.7362 30.6493 20.9834C29.8875 21.2306 29.04 21.3542 28.1067 21.3542Z" fill="#04383A"/>
<path d="M15.0607 20.8836H10.3542L11.5308 12.6473H11.2955C10.3542 17.7067 5.88307 20.281 0 20.281V15.3395C3.89427 15.2074 8.2363 13.8239 9.11348 9.73307L1.88258 10.0587V5.82289H15.0607V20.8836Z" fill="#23DD9C"/>
</svg>
