<?xml version="1.0" encoding="UTF-8"?> <svg xmlns="http://www.w3.org/2000/svg" xmlns:xlink="http://www.w3.org/1999/xlink" version="1.1" id="Warstwa_1" x="0px" y="0px" viewBox="0 0 125 24.9" style="enable-background:new 0 0 125 24.9;" xml:space="preserve"> <path d="M105.4,3.9v17.2h8.5c2.4,0,3.8-0.4,4.8-1.2c1.2-1.1,1.9-3.1,1.9-7.4s-0.6-6.2-1.9-7.4c-1-0.9-2.4-1.2-4.8-1.2H105.4z M117,12.5c0,3.8-0.2,4.6-1,5.1c-0.5,0.4-1.1,0.5-2.4,0.5h-4.8V6.8h4.8c1.2,0,1.9,0,2.4,0.5C116.8,7.9,117,8.8,117,12.5z M124.9,24.9H99.9V0h24.9V24.9z M79.6,6.8V3.9h14.8v5.5h-3.1V6.8h-6v4.1h4.8v2.8h-4.8v4.6h6.1v-3h3.1v5.9H79.6v-2.9h2.4V6.8H79.6z M66.2,16.6c0,1.9,0.1,3.2,0.4,4.4h3.4c-0.1-0.9-0.2-2.5-0.2-4.6c-0.1-2.5-0.9-2.9-2.6-3.2c2-0.4,2.9-1.2,2.9-4.4 c0-2.5-0.4-3.5-1.1-4.1c-0.5-0.5-1.4-0.8-2.8-0.8H55.6v17.2h3.5v-6.8h4.9c1,0,1.4,0.1,1.8,0.4S66.2,15.4,66.2,16.6z M59.1,11.6V6.9 h5.6c0.8,0,1,0.1,1.1,0.2c0.2,0.2,0.5,0.6,0.5,2.1s-0.2,2-0.5,2.2c-0.1,0.1-0.4,0.2-1.1,0.2L59.1,11.6z M74.9,24.9h-25V0h24.9 L74.9,24.9L74.9,24.9z M43.4,18.2v2.9H31.6v-2.9h4.2V6.8h-4.2V3.9h11.9v2.9h-4.2v11.5H43.4z M23.4,3.9h-3.2l-2.4,13.6L15,4.9 c-0.1-0.9-0.5-1-1.2-1H12c-0.8,0-1.1,0.2-1.2,1L8,17.5L5.6,3.9H2.1l3.4,16.4c0.1,0.8,0.4,0.9,1.2,0.9h2.4c0.8,0,1-0.1,1.2-0.9 L13,8.4l2.6,11.9c0.1,0.8,0.4,0.9,1.2,0.9h2.2c0.8,0,1.1-0.1,1.2-0.9L23.4,3.9z M25.1,24.9h-25V0h24.9L25.1,24.9L25.1,24.9z"></path> </svg> 